# xmcd
# 
# Track frame offsets:
#     150
#     26372
#     43947
#     66722
#     84845
#     101115
#     115577
#     133260
#     154495
# 
# Disc length: 2291
# 
# Revision: 7
# Processed by: cddbd v1.5.2PL0 Copyright (c) Steve Scherf et al.
# Submitted via: fre:ac v1.0.31
# 
DISCID=7c08f109
DTITLE=Charlie Daniels - High Lonesome
DYEAR=1976
DGENRE=Rock/Pop
TTITLE0=Billy The Kid
TTITLE1=Carolina
TTITLE2=High Lonesome
TTITLE3=Running With The Crowd
TTITLE4=Right Now Tennessee Blues
TTITLE5=Roll Mississippi
TTITLE6=Slow Song
TTITLE7=Tennessee
TTITLE8=Turned My Head Around
EXTD=
EXTT0=
EXTT1=
EXTT2=
EXTT3=
EXTT4=
EXTT5=
EXTT6=
EXTT7=
EXTT8=
PLAYORDER=
